<?xml version="1.0" encoding="utf-8"?>
<!DOCTYPE svg PUBLIC "-//W3C//DTD SVG 1.1//EN" "http://www.w3.org/Graphics/SVG/1.1/DTD/svg11.dtd">
<svg version="1.1" id="图形" xmlns="http://www.w3.org/2000/svg" xmlns:xlink="http://www.w3.org/1999/xlink" x="0px" y="0px" width="1024px" height="1024px" viewBox="0 0 1024 1024" enable-background="new 0 0 1024 1024" xml:space="preserve">
  <path fill="#a9b7b7" d="M511.096993-211.999982C229.361548-211.999982 0 17.361566 0 300.903007 0 582.638452 229.361548 812 511.096993 812 794.638434 812 1023.999982 582.638452 1023.999982 300.903007 1023.999982 17.361566 794.638434-211.999982 511.096993-211.999982M368.423274 405.650801l-99.329804 0 0-319.66137 99.329804 0L368.423274 405.650801zM377.453256 501.368612c0 30.701939-23.477954 55.98589-59.597883 55.98589-36.119929 0-61.403879-23.477954-61.403879-55.98589 0-30.701939 23.477954-55.98589 59.597883-55.98589l0 0C353.975302 445.382723 377.453256 468.860676 377.453256 501.368612zM767.548487 262.977082c0 99.329804-55.98589 144.479715-126.419751 144.479715-57.791886 0-92.105818-30.701939-99.329804-52.373897l0 50.5679-111.971779 0c1.805996-27.089947 0-319.66137 0-319.66137L541.798932 85.989431l0 173.375658c0 9.029982 0 19.865961 1.805996 25.28395 7.223986 19.865961 23.477954 39.731922 54.179893 39.731922 39.731922 0 55.98589-28.895943 55.98589-72.239858l0-166.151673 113.777776 0L767.548487 262.977082z" transform="translate(0, 812) scale(1, -1)"/>
</svg>
